<svg width="16" height="16" viewBox="0 0 16 16" fill="none" xmlns="http://www.w3.org/2000/svg">
<path fill-rule="evenodd" clip-rule="evenodd" d="M0.882745 0C0.394958 0 0 0.394958 0 0.882745V15.1173C0 15.6049 0.394895 16 0.882745 16H8.54614V9.80526H6.46053V7.38984H8.54614V5.60883C8.54614 3.54227 9.80868 2.41736 11.6522 2.41736C12.5353 2.41736 13.2936 2.483 13.5147 2.51243V4.67176H12.2362C11.2337 4.67176 11.0392 5.14834 11.0392 5.84746V7.38984H13.4313L13.119 9.80526H11.0392V16H15.1173C15.6049 16 16 15.605 16 15.1173V0.882745C16 0.394958 15.6049 0 15.1173 0H0.882745V0Z" fill="#232323"/>
</svg>
