<svg width="16" height="17" viewBox="0 0 16 17" fill="none" xmlns="http://www.w3.org/2000/svg">
<path fill-rule="evenodd" clip-rule="evenodd" d="M0 1.21632C0 0.543814 0.530173 0 1.1832 0H14.8168C15.4698 0 16 0.543814 16 1.21632V15.7837C16 16.4564 15.4698 17 14.8168 17H1.1832C0.530173 17 0 16.4564 0 15.7837V1.21632ZM5.00597 4.18063C4.99027 3.42725 4.48371 2.85548 3.65698 2.85547C2.83031 2.85547 2.29004 3.42725 2.29004 4.18063C2.29004 4.91743 2.8146 5.5058 3.62561 5.5058H3.63903C4.48177 5.5058 5.00597 4.91743 5.00597 4.18063ZM10.7834 6.375C12.3734 6.375 13.5621 7.4716 13.5621 9.8299V14.2314H11.1464V10.1233C11.1464 9.09118 10.7973 8.38642 9.92287 8.38642C9.25526 8.38642 8.85612 8.86502 8.68141 9.3235C8.6176 9.48754 8.60522 9.71402 8.60522 9.94349V14.2314H6.18506C6.18506 14.2314 6.21677 7.27529 6.18506 6.55485H8.60522V7.63864C8.92647 7.11551 9.50195 6.375 10.7834 6.375ZM4.84927 6.55469H2.43359V14.2312H4.84927V6.55469Z" fill="#232323"/>
</svg>
