<svg width="81" height="36" viewBox="0 0 81 36" fill="none" xmlns="http://www.w3.org/2000/svg">
<path fill-rule="evenodd" clip-rule="evenodd" d="M78.8075 0C77.7215 0 76.8411 0.88039 76.8411 1.96641C76.8411 3.05242 77.7215 3.93281 78.8075 3.93281C79.8935 3.93281 80.7739 3.05242 80.7739 1.96641C80.7739 0.88039 79.8935 0 78.8075 0ZM22.1075 19.3616C20.8773 22.2092 18.0437 24.202 14.7445 24.202C11.4454 24.202 8.61171 22.2092 7.38157 19.3616H4.48244C5.83686 23.7422 9.91904 26.9247 14.7445 26.9247C19.57 26.9247 23.6522 23.7422 25.0066 19.3616H22.1075ZM7.38157 13.0086C8.61171 10.161 11.4454 8.16822 14.7445 8.16822C18.0437 8.16822 20.8773 10.161 22.1075 13.0086H22.1079C22.4589 13.7649 22.6338 14.7455 22.6338 14.7455H19.6942H13.8115H2.11755L-0.00012207 17.3967H25.4173C25.4173 17.3967 25.4841 16.8398 25.4841 16.0338C25.4841 15.5285 25.4173 14.4291 25.0079 13.0086H25.0066C23.6522 8.62801 19.57 5.4455 14.7445 5.4455C9.91904 5.4455 5.83686 8.62801 4.48244 13.0086H7.38157ZM46.2862 23.2944V15.7313C46.2862 11.5543 42.9001 8.16822 38.7231 8.16822C34.5461 8.16822 31.16 11.5543 31.16 15.7313V23.2944V24.202V26.9247H28.4373V15.7313C28.4373 10.0506 33.0424 5.4455 38.7231 5.4455C44.4038 5.4455 49.0089 10.0506 49.0089 15.7313V26.9247H46.2862V24.202V23.2944ZM62.7736 23.9247C67.048 23.9247 70.5132 20.4596 70.5132 16.1851C70.5132 11.9106 67.048 8.4455 62.7736 8.4455C58.4991 8.4455 55.034 11.9106 55.034 16.1851C55.034 20.4596 58.4991 23.9247 62.7736 23.9247ZM70.7906 23.3314C68.8237 25.5363 65.9608 26.9247 62.7736 26.9247C56.8423 26.9247 52.034 22.1164 52.034 16.1851C52.034 10.2538 56.8423 5.4455 62.7736 5.4455C65.9608 5.4455 68.8237 6.83388 70.7906 9.03883V6.35156H73.5133V25.2593C73.5133 31.1906 68.705 35.9989 62.7737 35.9989C57.9482 35.9989 53.866 32.8164 52.5116 28.4358H55.4107C56.6409 31.2834 59.4745 33.2762 62.7737 33.2762C67.2013 33.2762 70.7906 29.6869 70.7906 25.2593V23.3314ZM77.4462 6.35156H80.1689V26.9232H77.4462V6.35156Z" fill="#232323"/>
</svg>
