<svg width="16" height="16" viewBox="0 0 16 16" fill="none" xmlns="http://www.w3.org/2000/svg">
<path fill-rule="evenodd" clip-rule="evenodd" d="M4.63104 0C2.07699 0 0 2.08321 0 4.6435V11.3577C0 13.9179 2.07699 16 4.63104 16H11.369C13.923 16 16 13.9179 16 11.3577V4.6435C16 2.08321 13.923 0 11.369 0H4.63104ZM4.63099 1.375H11.3689C13.1867 1.375 14.629 2.82084 14.629 4.64302V11.3572C14.629 13.1794 13.1867 14.6241 11.3689 14.6241H4.63099C2.81324 14.6241 1.37207 13.1794 1.37207 11.3572V4.64302C1.37207 2.82084 2.81324 1.375 4.63099 1.375ZM11.3345 3.71179C11.3345 3.18047 11.7639 2.75 12.2939 2.75C12.8239 2.75 13.2534 3.18047 13.2534 3.71179C13.2534 4.24312 12.8239 4.67359 12.2939 4.67359C11.7639 4.67359 11.3345 4.24312 11.3345 3.71179ZM8.0001 3.87891C5.73848 3.87891 3.89062 5.73129 3.89062 7.99842C3.89062 10.2656 5.73848 12.1179 8.0001 12.1179C10.2617 12.1179 12.1107 10.2656 12.1107 7.99842C12.1107 5.73129 10.2617 3.87891 8.0001 3.87891ZM10.7386 8.00185C10.7386 6.47795 9.52024 5.25781 8.00005 5.25781C6.47986 5.25781 5.2627 6.47795 5.2627 8.00185C5.2627 9.52575 6.47986 10.7459 8.00005 10.7459C9.52024 10.7459 10.7386 9.52575 10.7386 8.00185Z" fill="#232323"/>
</svg>
