<svg width="106" height="47" viewBox="0 0 106 47" fill="none" xmlns="http://www.w3.org/2000/svg">
<path fill-rule="evenodd" clip-rule="evenodd" d="M103.16 0C101.742 0 100.593 1.14939 100.593 2.56724C100.593 3.98509 101.742 5.13448 103.16 5.13448C104.578 5.13448 105.727 3.98509 105.727 2.56724C105.727 1.14939 104.578 0 103.16 0ZM29.1353 25.2775C27.5293 28.9952 23.8298 31.5969 19.5226 31.5969C15.2155 31.5969 11.5159 28.9952 9.90993 25.2775H6.12498C7.89324 30.9966 13.2227 35.1516 19.5226 35.1516C25.8226 35.1516 31.152 30.9966 32.9203 25.2775H29.1353ZM9.90993 16.9834C11.5159 13.2657 15.2155 10.664 19.5226 10.664C23.8298 10.664 27.5293 13.2657 29.1353 16.9834H29.1359C29.5941 17.9708 29.8225 19.251 29.8225 19.251H25.9847H18.3045H3.03749L0.272766 22.7123H33.4565C33.4565 22.7123 33.5437 21.9852 33.5437 20.933C33.5437 20.2732 33.4565 18.8379 32.922 16.9834H32.9203C31.152 11.2643 25.8226 7.10938 19.5226 7.10938C13.2227 7.10938 7.89324 11.2643 6.12498 16.9834H9.90993ZM60.7019 30.412V20.538C60.7019 15.0848 56.2811 10.664 50.8279 10.664C45.3746 10.664 40.9539 15.0848 40.9539 20.538V30.412V31.5969V35.1516H37.3992V20.538C37.3992 13.1216 43.4114 7.10938 50.8279 7.10938C58.2443 7.10938 64.2565 13.1216 64.2565 20.538V35.1516H60.7019V31.5969V30.412ZM82.227 31.1516C87.7615 31.1516 92.248 26.665 92.248 21.1305C92.248 15.596 87.7615 11.1094 82.227 11.1094C76.6925 11.1094 72.2059 15.596 72.2059 21.1305C72.2059 26.665 76.6925 31.1516 82.227 31.1516ZM92.6935 30.4603C90.1257 33.339 86.388 35.1516 82.227 35.1516C74.4833 35.1516 68.2059 28.8741 68.2059 21.1305C68.2059 13.3868 74.4833 7.10938 82.227 7.10938C86.388 7.10938 90.1257 8.92195 92.6935 11.8006V8.29297H96.2482V32.978C96.2482 40.7216 89.9707 46.9991 82.2271 46.9991C75.9272 46.9991 70.5977 42.8441 68.8294 37.1251H72.6144C74.2204 40.8427 77.9199 43.4444 82.2271 43.4444C88.0075 43.4444 92.6935 38.7584 92.6935 32.978V30.4603ZM101.383 8.29297H104.937V35.1503H101.383V8.29297Z" fill="#232323"/>
<path fill-rule="evenodd" clip-rule="evenodd" d="M19.5226 31.5969C23.8298 31.5969 27.5293 28.9952 29.1353 25.2775H32.9203C31.152 30.9966 25.8226 35.1516 19.5226 35.1516C13.2227 35.1516 7.89324 30.9966 6.12498 25.2775H9.90993C11.5159 28.9952 15.2155 31.5969 19.5226 31.5969ZM19.5226 10.664C15.2155 10.664 11.5159 13.2657 9.90993 16.9834H6.12498C7.89324 11.2643 13.2227 7.10938 19.5226 7.10938C25.8226 7.10938 31.152 11.2643 32.9203 16.9834H32.922C33.4565 18.8379 33.5437 20.2732 33.5437 20.933C33.5437 21.9852 33.4565 22.7123 33.4565 22.7123H0.272766L3.03749 19.251H18.3045H25.9847H29.8225C29.8225 19.251 29.5941 17.9708 29.1359 16.9834H29.1353C27.5293 13.2657 23.8298 10.664 19.5226 10.664Z" fill="#65FEB7"/>
</svg>
