<svg width="16" height="13" viewBox="0 0 16 13" fill="none" xmlns="http://www.w3.org/2000/svg">
<path fill-rule="evenodd" clip-rule="evenodd" d="M14.115 2.05568C14.7926 1.64933 15.3128 1.0062 15.5579 0.240023C14.9238 0.616262 14.2215 0.889166 13.4735 1.03627C12.875 0.398592 12.0219 0 11.0778 0C9.26492 0 7.79555 1.46927 7.79555 3.28177C7.79555 3.53908 7.82431 3.78964 7.8805 4.02968C5.15243 3.893 2.73382 2.58605 1.11487 0.600696C0.832311 1.08519 0.670463 1.64886 0.670463 2.25042C0.670463 3.38917 1.2497 4.39352 2.13071 4.98227C1.59266 4.96545 1.08646 4.81776 0.643895 4.57177C0.643265 4.5856 0.643265 4.59924 0.643265 4.61296C0.643265 6.20335 1.77485 7.52949 3.27629 7.83119C3.0011 7.9062 2.71119 7.94587 2.4118 7.94587C2.20008 7.94587 1.9948 7.92584 1.79403 7.88736C2.21201 9.19115 3.42399 10.1401 4.86059 10.1667C3.73629 11.0471 2.3212 11.5715 0.783235 11.5715C0.518472 11.5715 0.256995 11.5559 0 11.5257C1.45322 12.4569 3.17834 13 5.0322 13C11.0696 13 14.3707 7.99935 14.3707 3.66213C14.3707 3.5199 14.3674 3.37865 14.3615 3.23791C15.0025 2.77482 15.5589 2.19696 15.9993 1.53869C15.4116 1.79974 14.7789 1.97619 14.115 2.05568Z" fill="#232323"/>
</svg>
